<?xml version="1.0" encoding="utf-8"?>
<!-- Generator: Adobe Illustrator 24.0.3, SVG Export Plug-In . SVG Version: 6.00 Build 0)  -->
<svg version="1.1" id="Ebene_1" xmlns="http://www.w3.org/2000/svg" xmlns:xlink="http://www.w3.org/1999/xlink" x="0px" y="0px"
	 viewBox="0 0 203 40.2" style="enable-background:new 0 0 203 40.2;" xml:space="preserve">
<style type="text/css">
	.st0{fill:#FFFFFF;}
</style>
<title>fb_white</title>
<g>
	<path class="st0" d="M9.5,33.5C8.8,33.9,8,34,7,34c-1.7,0-3-0.5-4-1.5c-0.8-0.9-1.3-2.1-1.3-3.5v-9.4h0v-3.3h0V9.6l5-1.3v8.1l0,0
		v3.3l0,0v9c0,1.4,0.5,2,1.6,2c0.3,0,0.7-0.1,1.1-0.2V33.5z"/>
	<path class="st0" d="M28.5,25.2L18,26.6c0.3,2.5,1.7,3.8,4.2,3.8c1.8,0,3.3-0.3,4.5-0.9l1.1,3.1c-1.7,0.8-3.8,1.3-6.2,1.3
		c-2.6,0-4.7-0.8-6.2-2.4c-1.5-1.6-2.2-3.8-2.2-6.6c0-2.8,0.7-4.9,2.1-6.6c1.4-1.6,3.3-2.4,5.8-2.4c2.5,0,4.4,0.8,5.6,2.4
		C28,19.9,28.6,22.2,28.5,25.2z M23.8,23.3c0-3-1-4.5-2.9-4.5c-1.1,0-1.9,0.4-2.4,1.3c-0.6,0.9-0.9,2.3-0.8,4L23.8,23.3z"/>
	<path class="st0" d="M46.4,24.9c0,2.7-0.6,4.8-1.9,6.5c-1.4,1.7-3.3,2.6-5.8,2.6c-2.5,0-4.4-0.9-5.7-2.6c-1.3-1.6-2-3.8-2-6.5
		c0-2.7,0.6-4.8,1.9-6.5c1.4-1.7,3.3-2.5,5.7-2.5c2.5,0,4.4,0.9,5.8,2.5C45.8,20,46.4,22.2,46.4,24.9z M41.4,24.8
		c0-3.9-0.9-5.8-2.7-5.8c-1.8,0-2.7,1.9-2.7,5.8c0,3.8,0.9,5.7,2.7,5.7C40.5,30.5,41.4,28.6,41.4,24.8z"/>
	<path class="st0" d="M64.4,33.6h-5V21.4c0-1.6-0.9-2.4-2.6-2.4c-0.7,0-1.4,0.1-2.1,0.4v14.2h-5V17.1c1.9-0.9,4.4-1.3,7.3-1.3
		c5,0,7.5,1.8,7.5,5.5V33.6z"/>
	<path class="st0" d="M82.8,25.2l-10.4,1.5c0.3,2.5,1.7,3.8,4.2,3.8c1.8,0,3.3-0.3,4.5-0.9l1.1,3.1c-1.7,0.8-3.8,1.3-6.2,1.3
		c-2.6,0-4.7-0.8-6.2-2.4c-1.5-1.6-2.2-3.8-2.2-6.6c0-2.8,0.7-4.9,2.1-6.6c1.4-1.6,3.3-2.4,5.8-2.4c2.5,0,4.4,0.8,5.6,2.4
		C82.3,19.9,82.9,22.2,82.8,25.2z M78.1,23.3c0-3-1-4.5-2.9-4.5c-1.1,0-1.9,0.4-2.4,1.3c-0.6,0.9-0.9,2.3-0.8,4L78.1,23.3z"/>
	<g>
		<path class="st0" d="M114.5,12.7c0,0.7-0.2,1.2-0.7,1.7c-0.5,0.5-1,0.7-1.7,0.7s-1.2-0.2-1.7-0.7c-0.5-0.5-0.7-1-0.7-1.7
			c0-0.6,0.2-1.2,0.7-1.7c0.5-0.5,1-0.7,1.7-0.7s1.2,0.2,1.7,0.7C114.3,11.5,114.5,12,114.5,12.7z"/>
		<rect x="109.6" y="16.2" class="st0" width="5" height="17.4"/>
	</g>
	<path class="st0" d="M133.9,24.4c0,3.1-0.8,5.4-2.3,7.1c-1.5,1.6-3.7,2.5-6.6,2.5c-2.8,0-4.9-0.4-6.3-1.3V8.2h5v8.4
		c0.9-0.4,2-0.6,3.2-0.6c2.1,0,3.7,0.8,5,2.3C133.3,19.8,133.9,21.8,133.9,24.4z M128.9,24.7c0-3.9-1.1-5.9-3.4-5.9
		c-0.7,0-1.3,0.1-1.8,0.4v11.4c0.4,0.2,0.9,0.3,1.5,0.3C127.7,30.9,128.9,28.8,128.9,24.7z"/>
	<path class="st0" d="M151.7,32.5c-1.8,0.9-4.2,1.4-7.3,1.4c-4.9,0-7.3-2-7.3-6V16.2h5v12c0,1.5,0.8,2.3,2.4,2.3
		c0.9,0,1.6-0.1,2.1-0.4V16.2h5V32.5z"/>
	<path class="st0" d="M166.2,28.4c0,1.6-0.6,2.9-1.7,3.9c-1.2,1.1-2.9,1.6-4.9,1.6c-2.1,0-3.8-0.4-5.1-1.3l1.3-3.2
		c0.8,0.7,1.9,1,3.1,1c0.6,0,1.2-0.2,1.6-0.5c0.4-0.4,0.6-0.8,0.6-1.4c0-1.1-0.7-1.9-2.2-2.5c-2.6-1-3.9-2.6-3.9-4.8
		c0-1.5,0.5-2.8,1.6-3.8s2.5-1.5,4.2-1.5c2,0,3.6,0.4,5,1.3l-1.2,2.9c-0.7-0.6-1.6-0.9-2.6-0.9c-1.3,0-2,0.6-2,1.8
		c0,1,0.7,1.8,2.2,2.4c1.6,0.7,2.7,1.4,3.3,2.3C165.9,26.3,166.2,27.3,166.2,28.4z"/>
	<path class="st0" d="M94.7,33.3c-0.7,0.3-1.5,0.5-2.5,0.5c-1.7,0-3-0.5-4-1.5c-0.8-0.9-1.3-2.1-1.3-3.5v-9.1h-1.9V16H87v-3.5l5-1.3
		V16h3.2v3.7h-3.2v8.8c0,1.4,0.5,2,1.6,2c0.3,0,0.7-0.1,1.1-0.2V33.3z"/>
	<path class="st0" d="M106,33.3c-0.7,0.3-1.5,0.5-2.5,0.5c-1.7,0-3-0.5-4-1.5c-0.8-0.9-1.3-2.1-1.3-3.5v-9.1h-3V16h3v-3.5l5-1.3V16
		h2.7v3.7h-2.7v8.8c0,1.4,0.5,2,1.6,2c0.3,0,0.7-0.1,1.1-0.2V33.3z"/>
</g>
<g>
	<path class="st0" d="M180.5,6.2c-0.8-1.4-1.7-2.9-2.5-4.4c1.8,0.3,3.3,1.1,4.8,2.1c1.5,1.1,2.2,2.6,2.7,4.4c1.8-1.2,2.4-3,3.3-4.7
		c2,1.6,2.2,4.9,0.4,6.3c0.8-2.6,0.8-3.1,0-4.5c-1.3,1.6-2.7,3.3-4.3,5.2c-0.8-2.7-1.2-5.3-4-6.7c1.1,2.1,1.3,4,0.9,6.2
		c-0.7-0.9-1.1-1.8-1.8-2.4c-2.2-2.1-5.1-2.6-8-2.8c-6.2-0.4-12.1,1-17.9,3.1c-2.1,0.8-4.2,1.7-6.4,2.4c1.6-0.8,3.1-1.6,4.7-2.3
		c5.4-2.4,11-4,17-4.2c3.7-0.1,7.2,0.3,10.5,2.2c0.1,0.1,0.3,0.1,0.4,0.1C180.4,6.3,180.5,6.3,180.5,6.2z"/>
	<path class="st0" d="M182.7,37.4c-0.3-0.6-0.5-1.1-0.7-1.6c-1.4,1.2-2.7,2.3-4.1,3.5c4-4.3,3.3-4,3.8-7.2c0.4,0.4,0.6,0.7,1.1,1.2
		c0.3-2.4,0.4-4.5-0.6-6.5c-0.6-1.2-1.4-2.3-2-3.5c-0.9-1.8-1.1-3.6,0.1-5.4c-0.6,2.9,0.6,5,2.3,7.2C185.4,29,184.8,34.1,182.7,37.4
		z"/>
	<path class="st0" d="M170.3,38.4c0.1-0.7,0.2-1,0.2-1.4c-1.3,0.5-2.5,1-3.8,1.6c1.9-1.2,4-2.1,5-4.5c0.2,0.4,0.4,0.6,0.6,1
		c1.4-2,2.6-4,2.3-6.6c-0.2-2,0.6-3.7,2.3-5c-1.5,2-1.5,3.9-1.4,6c0.1,1.2-0.4,2.5-0.9,3.7C173.9,35.3,172.3,36.8,170.3,38.4z"/>
	<path class="st0" d="M196,18.7c-1.6-0.3-3.2-0.6-4.9-0.9c0.8,0.9,1.4,1.6,2.1,2.3c-0.1,0.1-0.2,0.2-0.3,0.4
		c-1.4-2.3-3.8-2.4-6.4-2.8c2.6-0.9,5-0.6,7.5-0.5c-0.8-0.8-1.5-1.7-2.3-2.4c-0.8-0.7-1.7-1.3-2.6-2C191.2,13,195.5,16.6,196,18.7z"
		/>
	<path class="st0" d="M201.1,23.9c-1.7-1.4-3.4-2.7-5.1-4.1c0.1-0.1,0.1-0.2,0.2-0.3c1.7,1,3.4,1.9,5.1,2.9c0.4,0.2,0.9,0.5,1.2,0.9
		c0.4,0.4,1,1.1,0.9,1.4c-0.3,0.7-0.8,1.5-1.5,1.9c-0.7,0.4-0.8-0.2-0.6-0.7c-0.9-0.5-1.7-0.9-2.5-1.4c0.1-0.1,0.1-0.3,0.2-0.4
		c0.7,0,1.4,0,2.1,0C201,24.2,201,24.1,201.1,23.9z"/>
	<path class="st0" d="M179,9.7c-4.4-3.8-9.5-3.4-14.7-2.5c-3,0.6-6,1.4-9,1.8c2.5-0.7,5.1-1.6,7.6-2.2c3.5-0.8,7-1.4,10.5-0.6
		C175.7,6.8,177.7,7.7,179,9.7z"/>
	<path class="st0" d="M189,27.9c1.2,0.9,2.2,1.7,3.3,2.5c-0.1,0.2-0.2,0.3-0.3,0.5c-1.3-1.4-2.8-2.3-4.8-1.9c1.6-3-0.4-5.5-5.4-7
		C185.4,21.7,189.6,24.2,189,27.9z"/>
	<path class="st0" d="M174.3,12.2c-1.1,0-2.2-0.1-3.2,0c-1.6,0.1-2,0.7-1.9,2.2c0,0.6,0.2,1.1,0.3,1.7c0.1,0.5,0.3,1,0.4,1.6
		c-1.3-0.4-2.5-2.6-2.2-4.2c0.2-1.2,1.2-2,2.9-1.9c1.2,0,2.5,0.2,3.7,0.3C174.4,12,174.3,12.1,174.3,12.2z"/>
	<path class="st0" d="M200.9,27.6c0.4,2.6-2.3,5.2-6.2,3.9C197.7,31.7,199.6,30.1,200.9,27.6z"/>
	<path class="st0" d="M174.3,13.7c-0.1,0-0.2,0-0.2,0c-0.6,0.2-1.3,0.3-1.9,0.5c0.4,0.7,0.7,1.4,1.1,2.1c0.2,0.3,0.5,0.5,1,0.9
		c-1.4-0.3-2.3-0.9-3-1.9c-0.5-0.8-0.3-1.7,0.7-1.9c0.8-0.2,1.6,0,2.4,0C174.4,13.5,174.4,13.6,174.3,13.7z"/>
</g>
</svg>
