<?xml version="1.0" encoding="utf-8"?>
<!-- Generator: Adobe Illustrator 22.1.0, SVG Export Plug-In . SVG Version: 6.00 Build 0)  -->
<svg version="1.1" id="Ebene_1" xmlns="http://www.w3.org/2000/svg" xmlns:xlink="http://www.w3.org/1999/xlink" x="0px" y="0px"
	 viewBox="0 0 126 24" style="enable-background:new 0 0 126 24;" xml:space="preserve">
<style type="text/css">
	.st0{fill:#FFFFFF;}
</style>
<title>fb_white</title>
<path class="st0" d="M25.8,6.5L11.5,6.6c0,0-2.5,0-5.7,2.5c-3,2.3-2.9,3.1-2.9,5.1c-0.1,2.7,2.9,3.5,3.1,3.5c7.3,0.4,20.9,0,20.9,0
	s3.5-0.5,7-2.9c4-2.7,4.7-5.3,4.7-5.3l3,0c0,0-2.7,6.1-3,7c-0.5,1.5,0.5,2.1,4.5-0.5c3.6-2.3,4.4-6.4,4.4-6.4s2.9-0.2,2.9,0
	s-1,3.1-1,3.1s-1.2,2.8-1.5,3.5c-0.5,1.1,0.1,1.5,0.1,1.5l8.8,0c0,0,0.5-0.1,0.8-0.2c0.3-0.1,0.7-0.3,1.3-0.8
	c0.5-0.5,3.2-3.4,3.6-3.8s-0.1-0.6-0.1-0.6s-0.2,0-1.4,0c-1.2,0-1-2.2,0.1-6s2.3-3.8,2.3-3.8s3.6,0,4.7,0.1s1.4,0.9,0.5,4.3
	c-0.2,0.8-0.9,2.5-0.9,2.5s0,0.3,0.2,0.3c1,0,3.4,0,4.1,0c0.6,0.1,1,1.1,0.9,1.6c0,0-0.5,1.4-1,2.9c-0.3,1-0.8,2.4-0.9,3.1
	c-0.1,0.3,0.1,0.5,0.1,0.5s5.4,0,5.8-0.1s1.6-0.5,2.2-0.8c1.2-0.7,1.7-2.6,2.8-4.1c0.9-1.3,2.8-2.6,4.1-2.9c0.2,0,0.4-0.1,0.4-0.1
	l7-0.1l-0.1,2.6l-6.7,0c0,0-0.3,0.1-0.6,0.2c-0.6,0.4-1.9,1.4-2.5,2.7c-0.8,1.8,0.8,2.7,0.8,2.7s0.1,0,0.2,0c1.3,0,8.2,0,8.8-0.1
	c0.6-0.1,1,0,2.9-1c3.6-1.8,4.3-6.9,4.3-6.9l2.9-0.1c0,0-1.8,5.8-2,6.1c-0.6,1.5-0.1,2-0.1,2l6.1-0.1c0,0,0.3-0.1,0.9-0.3
	c0.5-0.3,2.2-2,2.2-2.2c0-1.2,0.6-2.3,1.2-3.1c1.4-1.9,3-2.3,4.8-2.3c1.9,0,3.8,1.9,3.8,1.9s0,0.1,1.1-0.1c1.6-0.3,4.2-1.8,4.2-1.8
	l1.4,1.8c0,0-0.4,0.6-1.7,1.3c-1.4,0.7-4.2,1.1-4.2,1.1s0.1,0.2,0.1,0.7c0,0.7-0.4,1.9-0.7,2.4c-0.6,0.9-1.1,1.8-2.3,2.7
	s-3.6,1.1-4.7,0.6c-1.1-0.5-2.3-2.1-2.3-2.1l-0.5,0.6c0,0-0.9,0.8-1.4,1.1c-0.5,0.2-1,0.5-1,0.5h-6.7c0,0-1,0-1.7-0.1
	c-0.3,0-0.7-0.6-1.1-1.6c-0.4-1-1.5,0.3-2.6,1c-0.7,0.4-1.4,0.5-1.4,0.5l-10.9,0.2c0,0-0.5,0-1.3-0.2c-0.9-0.2-1.3-0.9-1.3-0.9
	l-0.6-0.8l-0.4,0c0,0-0.5,0.5-1.1,1c-0.6,0.5-1.5,0.7-1.5,0.7l-8.7,0.2c0,0-0.5-0.2-1-0.8c-0.5-0.7,0-2.8,0-2.8l1.5-4.4l-3,0
	c0,0-0.1,0.1-0.4,0.5c-0.2,0.4-4.1,4.8-5.1,5.6c-1,0.8-3.5,1.9-3.5,1.9l-10.2,0c0,0-0.9,0-1.8-0.6C45,19.6,45.1,18.5,45,18
	c-0.1-0.3-0.4-0.1-0.4-0.1l-2.2,1.4c0,0-0.4,0.4-1.9,0.9c-1.3,0.4-2.9,0.3-3.6,0.2c-0.7-0.1-1.5-0.2-1.6-1.4
	c-0.2-1.2,0.1-2.3,0.1-2.3s-3.4,2.1-5,2.8c-1.6,0.7-3.6,1.1-3.6,1.1s-20-0.3-21.3-0.3s-3.9-2-4.5-2.8c-0.4-0.6-1.4-1.3-0.7-5.3
	c0.9-5.4,7.5-7.8,9.9-8.3C10.5,3.9,11,3.8,11,3.8l16.7,0L25.8,6.5z M103.2,2.5c0,0-1.1,0.2-1.7,1.4c-0.5,1-0.9,2.3-0.4,2.7
	c0.2,0.1,0.7,0.8,1.4,0.6c0.6-0.2,1.9-0.9,2.1-2.3c0.2-1,0.1-1.4-0.2-1.9S103.2,2.5,103.2,2.5z M63.8,6c0,0-1.1,2.7-1.1,3
	s0.1,0.9,0.5,1.1c0.3,0.1,1,0,1.2-0.4c0.2-0.4,1.2-3.1,1.3-3.4C65.8,5.8,64.5,4.8,63.8,6z M116.8,12c-1.4-0.6-3.2,0.3-3.9,2
	c-0.8,1.7-0.3,3.7,1.1,4.3c1.4,0.6,3.2-0.3,3.9-2C118.7,14.5,118.2,12.6,116.8,12z"/>
</svg>
