<?xml version='1.0' encoding='utf-8'?>
<svg version="1.1" id="Livello_1" x="0px" y="0px" viewBox="0 0 1120.4 202.2" style="enable-background:new 0 0 1120.4 202.2;" xml:space="preserve">
<style type="text/css">
	.st0{fill:none;}
	.st1{enable-background:new    ;}
	.st2{fill:#13A8B5;}
	.st3{opacity:0.28;enable-background:new    ;}
	.st4{fill:#FFFFFF;}
	.st5{fill:#147A7C;}
</style>
<g>
	<rect x="-37.8" y="-147.9" class="st0" width="1600" height="500" />
</g>
<g transform="translate(72,58)">
	<g class="st1">
		<path class="st2" d="M426.6,4.5H439l30.3,65.8l29.9-65.8h12.5l-41.3,90.3h-2.2L426.6,4.5z" />
		<path class="st2" d="M523.7,4.5h11.6v90.3h-11.6V4.5z" />
		<path class="st2" d="M645.6,4.5v90.3h-11.5V79.3c-4.9,5.9-10.3,10.4-16.4,13.4s-12.7,4.5-19.9,4.5c-12.8,0-23.7-4.6-32.7-13.9    c-9-9.3-13.6-20.5-13.6-33.8c0-13,4.6-24.1,13.7-33.4c9.1-9.2,20.1-13.9,33-13.9c7.4,0,14.1,1.6,20.1,4.7    c6,3.2,11.3,7.9,15.8,14.2V4.5H645.6z M599.1,13.4c-6.5,0-12.4,1.6-17.9,4.8c-5.5,3.2-9.8,7.6-13.1,13.4s-4.8,11.8-4.8,18.2    c0,6.4,1.6,12.4,4.9,18.2c3.3,5.8,7.6,10.3,13.1,13.6s11.4,4.8,17.7,4.8c6.4,0,12.4-1.6,18.1-4.8c5.7-3.2,10.1-7.5,13.1-13    c3.1-5.5,4.6-11.6,4.6-18.5c0-10.4-3.4-19.2-10.3-26.2C617.6,16.9,609.2,13.4,599.1,13.4z" />
		<path class="st2" d="M745.7,4.5h11.6v72c0,12.7-1.1,21.9-3.3,27.8c-3,8.3-8.3,14.7-15.9,19.2c-7.5,4.5-16.6,6.7-27.1,6.7    c-7.7,0-14.7-1.1-20.9-3.3c-6.2-2.2-11.2-5.1-15.1-8.8c-3.9-3.7-7.4-9.1-10.7-16.2h12.6c3.4,6,7.9,10.4,13.3,13.3    c5.4,2.9,12.2,4.3,20.2,4.3c7.9,0,14.6-1.5,20.1-4.4s9.4-6.7,11.7-11.1c2.3-4.5,3.5-11.7,3.5-21.6v-4.6c-4.4,5.5-9.7,9.8-16,12.7    c-6.3,3-13,4.4-20.1,4.4c-8.3,0-16.1-2.1-23.4-6.2s-13-9.7-17-16.6s-6-14.6-6-23c0-8.4,2.1-16.1,6.2-23.4    c4.2-7.2,9.9-12.9,17.2-17.1c7.3-4.2,15.1-6.3,23.2-6.3c6.8,0,13.1,1.4,18.9,4.2c5.8,2.8,11.5,7.4,16.9,13.8V4.5z M711.4,13.4    c-6.6,0-12.7,1.6-18.3,4.8c-5.6,3.2-10.1,7.6-13.3,13.2c-3.2,5.6-4.8,11.7-4.8,18.2c0,9.9,3.3,18.1,10,24.6s15.2,9.7,25.8,9.7    c10.7,0,19.3-3.2,25.8-9.6c6.5-6.4,9.8-14.9,9.8-25.3c0-6.8-1.5-12.9-4.5-18.2c-3-5.3-7.2-9.6-12.7-12.7    C723.6,15,717.7,13.4,711.4,13.4z" />
		<path class="st2" d="M856.1,4.5h11.6v72c0,12.7-1.1,21.9-3.3,27.8c-3,8.3-8.3,14.7-15.9,19.2c-7.5,4.5-16.6,6.7-27.1,6.7    c-7.7,0-14.7-1.1-20.9-3.3c-6.2-2.2-11.2-5.1-15.1-8.8c-3.9-3.7-7.4-9.1-10.7-16.2h12.6c3.4,6,7.9,10.4,13.3,13.3    c5.4,2.9,12.2,4.3,20.2,4.3c7.9,0,14.6-1.5,20.1-4.4s9.4-6.7,11.7-11.1c2.3-4.5,3.5-11.7,3.5-21.6v-4.6c-4.4,5.5-9.7,9.8-16,12.7    c-6.3,3-13,4.4-20.1,4.4c-8.3,0-16.1-2.1-23.4-6.2s-13-9.7-17-16.6s-6-14.6-6-23c0-8.4,2.1-16.1,6.2-23.4    c4.2-7.2,9.9-12.9,17.2-17.1c7.3-4.2,15.1-6.3,23.2-6.3c6.8,0,13.1,1.4,18.9,4.2c5.8,2.8,11.5,7.4,16.9,13.8V4.5z M821.8,13.4    c-6.6,0-12.7,1.6-18.3,4.8c-5.6,3.2-10.1,7.6-13.3,13.2c-3.2,5.6-4.8,11.7-4.8,18.2c0,9.9,3.3,18.1,10,24.6s15.2,9.7,25.8,9.7    c10.7,0,19.3-3.2,25.8-9.6c6.5-6.4,9.8-14.9,9.8-25.3c0-6.8-1.5-12.9-4.5-18.2c-3-5.3-7.2-9.6-12.7-12.7    C834,15,828.2,13.4,821.8,13.4z" />
		<path class="st2" d="M887,4.5h11.6v90.3H887V4.5z" />
		<path class="st2" d="M961.6,2.2c13.9,0,25.4,5,34.6,15.1c8.3,9.2,12.5,20.1,12.5,32.6c0,12.6-4.4,23.6-13.2,33.1    c-8.8,9.4-20.1,14.2-33.9,14.2c-13.9,0-25.2-4.7-34-14.2c-8.8-9.4-13.2-20.5-13.2-33.1c0-12.5,4.2-23.4,12.5-32.5    C936.1,7.3,947.6,2.2,961.6,2.2z M961.6,13.6c-9.7,0-18,3.6-24.9,10.7s-10.4,15.8-10.4,25.9c0,6.5,1.6,12.6,4.7,18.3    c3.2,5.6,7.4,10,12.8,13.1c5.4,3.1,11.3,4.6,17.7,4.6s12.4-1.5,17.7-4.6c5.4-3.1,9.7-7.4,12.8-13.1c3.2-5.6,4.7-11.7,4.7-18.3    c0-10.1-3.5-18.8-10.5-25.9S971.2,13.6,961.6,13.6z" />
	</g>
	<g class="st1">
		<path class="st5" d="M40.2,22.5l-9.2,5.8C23,17.8,12.1,12.6-1.6,12.7c-11,0.1-20.1,3.7-27.3,10.8c-7.2,7.1-10.8,15.8-10.7,25.9    c0,6.6,1.8,12.8,5.2,18.5c3.4,5.8,8,10.2,13.9,13.4C-14.8,84.5-8.2,86.1-1,86c13.3-0.1,24.1-5.5,32.4-16.1l9.3,6    c-4.3,6.5-10,11.6-17.3,15.3c-7.2,3.6-15.5,5.5-24.8,5.6c-14.3,0.1-26.2-4.3-35.6-13.3c-9.5-9-14.3-20-14.4-33    c-0.1-8.7,2.1-16.9,6.4-24.4c4.3-7.5,10.3-13.4,18-17.7C-19.4,4-10.8,1.8-1.3,1.7c6,0,11.8,0.8,17.3,2.6c5.6,1.8,10.3,4.1,14.2,7    C34.2,14.3,37.5,18,40.2,22.5z" />
		<path class="st5" d="M135,63.4l9.8,5.1c-3.2,6.3-6.8,11.5-11,15.4c-4.2,3.9-8.9,6.9-14.1,8.9c-5.2,2.1-11.2,3.1-17.8,3.2    C87.1,96,75.5,91.3,67.2,81.7S54.5,61.2,54.5,49.1c-0.1-11.5,3.4-21.7,10.3-30.7C73.6,6.9,85.5,1.1,100.5,1    c15.4-0.1,27.7,5.6,37,17.2c6.6,8.2,10,18.5,10.2,30.8l-81.3,0.6c0.3,10.5,3.7,19.1,10.3,25.7c6.5,6.7,14.6,10,24.1,9.9    c4.6,0,9.1-0.9,13.4-2.5c4.3-1.6,8-3.8,11-6.5C128.2,73.6,131.5,69.3,135,63.4z M134.8,39.1c-1.6-6.2-3.9-11.1-6.9-14.8    c-3-3.7-6.9-6.6-11.8-8.9c-4.9-2.2-10-3.3-15.4-3.3c-8.9,0.1-16.5,3-22.8,8.7c-4.6,4.2-8.1,10.4-10.4,18.8L134.8,39.1z" />
		<path class="st5" d="M160.7,2.8l11.9-0.1l0.1,13.2c3.5-5.2,7.2-9.1,11.1-11.7c3.9-2.6,8-3.9,12.3-4c3.2,0,6.6,1,10.3,3l-6,9.8    c-2.4-1-4.5-1.5-6.2-1.5c-3.9,0-7.6,1.6-11.2,4.9c-3.6,3.2-6.3,8.2-8.1,14.9c-1.4,5.2-2,15.6-1.9,31.2l0.2,30.5l-11.9,0.1    L160.7,2.8z" />
		<path class="st5" d="M300.1,20.5l-9.2,5.8c-8-10.5-18.9-15.7-32.7-15.6c-11,0.1-20.1,3.7-27.3,10.8c-7.2,7.1-10.8,15.8-10.7,25.9    c0,6.6,1.8,12.8,5.2,18.5c3.4,5.8,8,10.2,13.9,13.4c5.9,3.2,12.4,4.7,19.6,4.7c13.3-0.1,24.1-5.5,32.4-16.1l9.3,6    c-4.3,6.5-10,11.6-17.3,15.3c-7.2,3.6-15.5,5.5-24.8,5.6c-14.3,0.1-26.2-4.3-35.6-13.3c-9.5-9-14.3-20-14.4-33    c-0.1-8.7,2.1-16.9,6.4-24.4c4.3-7.5,10.3-13.4,18-17.7c7.7-4.3,16.2-6.4,25.8-6.5c6,0,11.8,0.8,17.3,2.6c5.6,1.8,10.3,4.1,14.2,7    C294,12.3,297.4,16,300.1,20.5z" />
		<path class="st5" d="M408.4,1l0.7,90.3l-11.5,0.1l-0.1-15.5c-4.8,6-10.3,10.5-16.3,13.5c-6,3-12.7,4.6-19.8,4.6    c-12.8,0.1-23.7-4.5-32.9-13.7c-9.1-9.2-13.7-20.4-13.8-33.7c-0.1-13,4.4-24.2,13.4-33.5c9.1-9.3,20-14,32.8-14.1    c7.4-0.1,14.1,1.5,20.2,4.6c6,3.1,11.3,7.8,15.9,14.1l-0.1-16.6L408.4,1z M362,10.2c-6.5,0-12.4,1.7-17.9,4.9    c-5.5,3.2-9.8,7.7-13,13.5c-3.2,5.8-4.8,11.9-4.7,18.3c0,6.4,1.7,12.4,5,18.2c3.3,5.8,7.7,10.3,13.2,13.5    c5.5,3.2,11.4,4.8,17.7,4.7c6.4,0,12.4-1.7,18-4.9c5.7-3.2,10-7.6,13-13.1c3-5.5,4.5-11.7,4.5-18.5c-0.1-10.4-3.6-19.2-10.5-26.1    C380.5,13.6,372,10.1,362,10.2z" />
	</g>
	<g><path d="M417.1,-25.6 H595 H742 H858 C894,-25.6 918,-7 939,19" fill="none" stroke="#13A8B5" stroke-width="8.5" stroke-linecap="round" stroke-linejoin="round" opacity="0.95" /><circle cx="595" cy="-25.6" r="11.5" fill="#FFFFFF" stroke="#13A8B5" stroke-width="6" /><circle cx="742" cy="-25.6" r="11.5" fill="#FFFFFF" stroke="#13A8B5" stroke-width="6" /><circle cx="961.6" cy="49.6" r="6.2" fill="#13A8B5" /></g><g>
		<g>
			<ellipse class="st5" cx="417.1" cy="-25.6" rx="25.9" ry="25.7" />
		</g>
		<g>
			<path class="st4" d="M417.1,4.1c-16.5,0-29.9-13.3-29.9-29.7c0-16.4,13.4-29.7,29.9-29.7S447-42,447-25.6     C447-9.2,433.6,4.1,417.1,4.1z M417.1-47.3c-12.1,0-21.9,9.7-21.9,21.7S405-3.9,417.1-3.9S439-13.6,439-25.6     S429.2-47.3,417.1-47.3z" />
		</g>
	</g>
</g>
</svg>